<?xml version="1.0" encoding="UTF-8"?>
<svg id="Layer_1" data-name="Layer 1" xmlns="http://www.w3.org/2000/svg" xmlns:xlink="http://www.w3.org/1999/xlink" viewBox="0 0 973.57 453.91">
  <defs>
    <style>
      .cls-1 {
        fill: url(#linear-gradient-15);
      }

      .cls-2 {
        fill: url(#linear-gradient-13);
      }

      .cls-3 {
        stroke: url(#linear-gradient-19);
      }

      .cls-3, .cls-4, .cls-5 {
        fill: none;
      }

      .cls-3, .cls-5 {
        stroke-miterlimit: 10;
        stroke-width: 0px;
      }

      .cls-6 {
        fill: url(#linear-gradient-2);
      }

      .cls-7 {
        fill: url(#linear-gradient-10);
      }

      .cls-8 {
        fill: url(#linear-gradient-12);
      }

      .cls-9 {
        fill: url(#linear-gradient-4);
      }

      .cls-10 {
        fill: url(#linear-gradient-3);
      }

      .cls-11 {
        fill: url(#linear-gradient-5);
      }

      .cls-12 {
        fill: url(#linear-gradient-8);
      }

      .cls-13 {
        fill: url(#linear-gradient-14);
      }

      .cls-14 {
        fill: url(#linear-gradient-17);
      }

      .cls-15 {
        fill: url(#linear-gradient-7);
      }

      .cls-16 {
        fill: url(#linear-gradient-9);
      }

      .cls-17 {
        fill: url(#linear-gradient-11);
      }

      .cls-18 {
        fill: url(#linear-gradient-6);
      }

      .cls-19 {
        fill: url(#linear-gradient-16);
      }

      .cls-20 {
        fill: url(#linear-gradient);
      }

      .cls-5 {
        stroke: url(#linear-gradient-20);
      }

      .cls-21 {
        fill: url(#linear-gradient-18);
      }
    </style>
    <linearGradient id="linear-gradient" x1="351.65" y1="237.11" x2="520" y2="237.11" gradientUnits="userSpaceOnUse">
      <stop offset="0" stop-color="#fee704"/>
      <stop offset=".09" stop-color="#fdde09"/>
      <stop offset=".7" stop-color="#f9ad2c"/>
      <stop offset="1" stop-color="#f89b3a"/>
    </linearGradient>
    <linearGradient id="linear-gradient-2" x1="348.3" x2="527.18" xlink:href="#linear-gradient"/>
    <linearGradient id="linear-gradient-3" x1="348.3" y1="197.21" x2="527.17" y2="197.21" xlink:href="#linear-gradient"/>
    <linearGradient id="linear-gradient-4" x1="348.3" y1="196.07" x2="496.73" y2="196.07" xlink:href="#linear-gradient"/>
    <linearGradient id="linear-gradient-5" x1="311.14" y1="198.6" x2="389.98" y2="198.6" gradientUnits="userSpaceOnUse">
      <stop offset="0" stop-color="#4977bb"/>
      <stop offset=".22" stop-color="#4f90c6"/>
      <stop offset=".54" stop-color="#57afd4"/>
      <stop offset=".81" stop-color="#5cc2dc"/>
      <stop offset="1" stop-color="#5ec9e0"/>
    </linearGradient>
    <linearGradient id="linear-gradient-6" x1="248.93" y1="195.91" x2="345.79" y2="195.91" xlink:href="#linear-gradient-5"/>
    <linearGradient id="linear-gradient-7" x1="576.33" y1="196.16" x2="638.79" y2="196.16" gradientUnits="userSpaceOnUse">
      <stop offset="0" stop-color="#4977bb"/>
      <stop offset=".22" stop-color="#4f90c6"/>
      <stop offset=".54" stop-color="#57afd4"/>
      <stop offset=".81" stop-color="#5cc2dc"/>
      <stop offset=".99" stop-color="#5ec9e0"/>
    </linearGradient>
    <linearGradient id="linear-gradient-8" x1="638.79" y1="271.48" x2="728.77" y2="271.48" gradientUnits="userSpaceOnUse">
      <stop offset=".18" stop-color="#5ec9e0"/>
      <stop offset="1" stop-color="#5ec9e0"/>
    </linearGradient>
    <linearGradient id="linear-gradient-9" x1="345.62" y1="114.69" x2="404.82" y2="114.69" gradientUnits="userSpaceOnUse">
      <stop offset="0" stop-color="#b9e3e6"/>
      <stop offset=".25" stop-color="#aadddb"/>
      <stop offset=".71" stop-color="#85cfbe"/>
      <stop offset="1" stop-color="#6cc5ab"/>
    </linearGradient>
    <linearGradient id="linear-gradient-10" x1="91.55" y1="195.87" x2="211.97" y2="195.87" xlink:href="#linear-gradient-5"/>
    <linearGradient id="linear-gradient-11" x1="187.98" y1="195.91" x2="279.35" y2="195.91" xlink:href="#linear-gradient-5"/>
    <linearGradient id="linear-gradient-12" x1="682.77" y1="185.86" x2="843.62" y2="185.86" xlink:href="#linear-gradient-5"/>
    <linearGradient id="linear-gradient-13" x1="682.7" y1="215.58" x2="843.79" y2="215.58" gradientUnits="userSpaceOnUse">
      <stop offset="0" stop-color="#4977bb"/>
      <stop offset=".25" stop-color="#5094c8"/>
      <stop offset=".55" stop-color="#57b1d5"/>
      <stop offset=".81" stop-color="#5cc2dd"/>
      <stop offset="1" stop-color="#5ec9e0"/>
    </linearGradient>
    <linearGradient id="linear-gradient-14" x1="700.34" y1="281.23" x2="792.06" y2="247.85" gradientUnits="userSpaceOnUse">
      <stop offset="0" stop-color="#4977bb"/>
      <stop offset=".69" stop-color="#57aed4"/>
      <stop offset="1" stop-color="#5ec9e0"/>
    </linearGradient>
    <linearGradient id="linear-gradient-15" x1="795.7" y1="266.89" x2="834.37" y2="266.89" xlink:href="#linear-gradient-9"/>
    <linearGradient id="linear-gradient-16" x1="357.59" y1="265.37" x2="509.82" y2="265.37" xlink:href="#linear-gradient-5"/>
    <linearGradient id="linear-gradient-17" x1="354.74" y1="185.54" x2="516.5" y2="185.54" xlink:href="#linear-gradient-5"/>
    <linearGradient id="linear-gradient-18" x1="354.81" y1="214.92" x2="516.56" y2="214.92" xlink:href="#linear-gradient-5"/>
    <linearGradient id="linear-gradient-19" x1="516.29" y1="222.96" x2="523.27" y2="222.96" gradientUnits="userSpaceOnUse">
      <stop offset="0" stop-color="#6ec9c7"/>
      <stop offset="1" stop-color="#000"/>
    </linearGradient>
    <linearGradient id="linear-gradient-20" x1="843.64" y1="223.25" x2="850.62" y2="223.25" xlink:href="#linear-gradient-19"/>
  </defs>
  <path class="cls-4" d="M463.37,196.11s-.02-.07-.02-.08c-6.57-30.86-48.47-26.45-50.96,4.9l27.67-2.62,1.29-.13,22.02-2.08Z"/>
  <path class="cls-20" d="M413.58,236.23l-20.99,2.07,24.23-2.27s-.02-.06-.04-.08l.22-.02s0-.01,0-.02l-3.4.32Z"/>
  <path class="cls-6" d="M413.58,236.23l-20.99,2.07,24.23-2.27s-.02-.06-.04-.08l.22-.02s0-.01,0-.02l-3.4.32Z"/>
  <polygon class="cls-10" points="441.35 198.19 440.06 198.31 463.37 196.11 441.35 198.19"/>
  <path class="cls-9" d="M463.36,196.03s0,.06.02.08c0-.03-.01-.05-.02-.08Z"/>
  <path class="cls-11" d="M351.64,241.97c-.27-1.02-.49-1.9-.65-2.56-.26-1.08-.56-2.3-.87-3.88-.12-.61-.22-1.15-.29-1.51-.11-.61-.25-1.35-.41-2.33-.12-.75-.21-1.35-.28-1.82,0,0,0,0,0-.01-.09-.7-.17-1.22-.18-1.29,0,0,0,0,0,0-.02-.07-.02-.12-.02-.13,0-.06-.13-.97-.29-2.4-.17-1.56-.28-2.86-.3-3.17,0,0-.2-2.45-.28-4.86-.21-6.45.38-12.55.38-12.55.99-10.14,3.44-17.77,4.46-20.73.92-2.68,1.8-4.78,2.34-6.04,1.71-3.97,4.27-9.07,8.04-14.56,1.33-1.94,3.48-4.9,6.44-8.25,1.19-1.35,3.35-3.71,6.28-6.41,2.99-2.76,7.12-6.18,12.47-9.59-14.88-13.54-29.77-27.08-44.65-40.62l-32.69,110.69c11.55,29.34,23.1,58.67,34.66,88.01,3.8-13.59,7.6-27.18,11.4-40.77-1.2-2.53-2.14-4.84-2.89-6.82-.24-.65-.44-1.19-.57-1.57-.43-1.23-1.17-3.42-1.94-6.23-.07-.25-.12-.46-.16-.58Z"/>
  <path class="cls-18" d="M279.32,93.87l-30.38,95.51c10,36.19,20,72.37,30,108.56h66.86c-22.16-68.02-44.32-136.05-66.48-204.07Z"/>
  <path class="cls-15" d="M638.77,245.01V94.38h-62.44v203.57h62.46v-52.94h-.02Z"/>
  <path class="cls-12" d="M716.52,292.06c-5.73-3.34-9.71-6.56-11.17-7.77-1.88-1.56-6.71-5.73-11.54-11.83-7.89-9.98-11.93-20.33-14.05-27.44h-40.97v52.94h89.98c-3.5-1.35-7.71-3.23-12.26-5.89Z"/>
  <path class="cls-16" d="M404.82,93.8l-12.16,42.03c-15.68-14.09-31.36-28.18-47.04-42.27,19.73.08,39.47.16,59.2.24Z"/>
  <path class="cls-7" d="M187.96,208.96l-32.71-115.16h-63.71l59.06,204.05,61.37.09-24-89-.02.02Z"/>
  <path class="cls-17" d="M222.24,93.87l-34.26,115.07,24.01,89h5.18l31.79-108.66.02.09,30.38-95.51h-57.11Z"/>
  <g>
    <path class="cls-8" d="M744.11,233.16l99.51-9.89c-.08-15.25-1.32-30.21-6.81-44.31-29.48-75.58-148.31-54.13-153.77,28.11-.8,11.88.17,22.65,2.56,32.28l58.71-5.79c-.07-.13-.14-.27-.19-.4h-.02ZM786.47,196.91l-45.81,4.39c1.27-29,39.61-32.47,45.81-4.39Z"/>
    <path class="cls-2" d="M843.62,223.26c.68-11.18-.64-21.55-3.07-31.48l-54.45,5.45s0,.06.02.08l-19.79,1.89-83.25,8.32c-.83,9.14-.29,18.92,1.9,29.21.19.91.42,1.76.64,2.65l155.91-15.84,2.1-.3-.02.02Z"/>
    <path class="cls-13" d="M744.14,233.08l-58.71,5.79c10.86,43.76,51.61,64.04,95.69,58.04,6.6-.89,13-2.8,19.47-4.39l-9.86-48.32c-15.82,6.45-37.75,8.14-46.61-11.12h.02Z"/>
    <path class="cls-1" d="M834.35,257.15c-.15.62-28.51,33.53-28.51,33.53l-10.13-47.56,38.66,14.06-.02-.02Z"/>
  </g>
  <g>
    <path class="cls-19" d="M477.85,290.6c12.26-4.87,24.41-13.6,31.97-25.37l-33.58-30.78c-1.11-.3-4.41,3.55-5.62,4.51-1.43,1.15-3.23,2.52-4.76,3.48-14.57,9.21-41.45,10.27-49.19-9.65l-59.08,5.53c13.73,56.51,75.13,70.14,120.27,52.26l-.02.02Z"/>
    <path class="cls-14" d="M516.27,222.97c2.6-41.69-17.61-77.42-55.18-87.37-57.88-15.33-119.01,30.56-104.07,100.4.17.83.39,1.62.6,2.43l59.08-5.53s-.02-.06-.04-.08l99.61-9.85ZM458.8,196.8l-46.1,4.36c2.25-28.38,40.2-32.35,46.1-4.36Z"/>
    <path class="cls-21" d="M516.27,222.97c.35-4.66.44-10.17-.11-16.33-.52-5.85-1.49-11.02-2.58-15.38-18.25,1.81-36.49,3.61-54.74,5.42,0,0,0,.06.02.08l-19.91,1.88-83.77,8.27c-.84,9.08-.29,18.8,1.91,29.04.19.9.43,1.75.65,2.63l157.08-15.51c.48-.03.97-.06,1.45-.09Z"/>
  </g>
  <line class="cls-3" x1="523.27" y1="222.96" x2="516.29" y2="222.96"/>
  <line class="cls-5" x1="850.62" y1="223.25" x2="843.64" y2="223.25"/>
</svg>