{
  "accessors": [
    {
      "bufferView": 2,
      "componentType": 5126,
      "count": 65532,
      "max": [
        0.026157481595873833,
        0.09000000357627869,
        0.041646264493465424
      ],
      "min": [
        -0.024563999846577644,
        -2.478072848965189e-19,
        -0.04305800050497055
      ],
      "type": "VEC3"
    },
    {
      "bufferView": 2,
      "byteOffset": 786384,
      "componentType": 5126,
      "count": 65532,
      "max": [
        1.0,
        1.0,
        1.0
      ],
      "min": [
        -1.0,
        -1.0,
        -1.0
      ],
      "type": "VEC3"
    },
    {
      "bufferView": 1,
      "componentType": 5126,
      "count": 65532,
      "max": [
        0.996399998664856,
        0.9989579916000366
      ],
      "min": [
        0.005400000140070915,
        0.008199989795684814
      ],
      "type": "VEC2"
    },
    {
      "bufferView": 1,
      "byteOffset": 524256,
      "componentType": 5126,
      "count": 65532,
      "max": [
        0.996399998664856,
        0.9989579916000366
      ],
      "min": [
        0.005400000140070915,
        0.008199989795684814
      ],
      "type": "VEC2"
    },
    {
      "bufferView": 1,
      "byteOffset": 1048512,
      "componentType": 5126,
      "count": 65532,
      "max": [
        0.996399998664856,
        0.9989579916000366
      ],
      "min": [
        0.005400000140070915,
        0.008199989795684814
      ],
      "type": "VEC2"
    },
    {
      "bufferView": 1,
      "byteOffset": 1572768,
      "componentType": 5126,
      "count": 65532,
      "max": [
        0.996399998664856,
        0.9989579916000366
      ],
      "min": [
        0.005400000140070915,
        0.008199989795684814
      ],
      "type": "VEC2"
    },
    {
      "bufferView": 0,
      "componentType": 5125,
      "count": 307248,
      "type": "SCALAR"
    },
    {
      "bufferView": 2,
      "byteOffset": 1572768,
      "componentType": 5126,
      "count": 31143,
      "max": [
        0.02667936123907566,
        0.08580846339464188,
        0.041646264493465424
      ],
      "min": [
        -0.024563999846577644,
        0.014854422770440578,
        -0.0409979373216629
      ],
      "type": "VEC3"
    },
    {
      "bufferView": 2,
      "byteOffset": 1946484,
      "componentType": 5126,
      "count": 31143,
      "max": [
        1.0,
        1.0,
        1.0
      ],
      "min": [
        -1.0,
        -1.0,
        -1.0
      ],
      "type": "VEC3"
    },
    {
      "bufferView": 1,
      "byteOffset": 2097024,
      "componentType": 5126,
      "count": 31143,
      "max": [
        0.996399998664856,
        0.9977479577064514
      ],
      "min": [
        0.005642002448439598,
        0.011830031871795654
      ],
      "type": "VEC2"
    },
    {
      "bufferView": 1,
      "byteOffset": 2346168,
      "componentType": 5126,
      "count": 31143,
      "max": [
        0.996399998664856,
        0.9977479577064514
      ],
      "min": [
        0.005642002448439598,
        0.011830031871795654
      ],
      "type": "VEC2"
    },
    {
      "bufferView": 1,
      "byteOffset": 2595312,
      "componentType": 5126,
      "count": 31143,
      "max": [
        0.996399998664856,
        0.9977479577064514
      ],
      "min": [
        0.005642002448439598,
        0.011830031871795654
      ],
      "type": "VEC2"
    },
    {
      "bufferView": 1,
      "byteOffset": 2844456,
      "componentType": 5126,
      "count": 31143,
      "max": [
        0.996399998664856,
        0.9977479577064514
      ],
      "min": [
        0.005642002448439598,
        0.011830031871795654
      ],
      "type": "VEC2"
    },
    {
      "bufferView": 0,
      "byteOffset": 1228992,
      "componentType": 5125,
      "count": 133890,
      "type": "SCALAR"
    },
    {
      "bufferView": 2,
      "byteOffset": 2320200,
      "componentType": 5126,
      "count": 1201,
      "max": [
        0.01576010324060917,
        0.06655900180339813,
        0.02588968724012375
      ],
      "min": [
        -0.016126999631524086,
        0.0344030000269413,
        0.018703998997807503
      ],
      "type": "VEC3"
    },
    {
      "bufferView": 2,
      "byteOffset": 2334612,
      "componentType": 5126,
      "count": 1201,
      "max": [
        0.9999980926513672,
        0.9831278920173645,
        0.8215007185935974
      ],
      "min": [
        -0.9999669790267944,
        -0.9826401472091675,
        -0.9999688863754272
      ],
      "type": "VEC3"
    },
    {
      "bufferView": 1,
      "byteOffset": 3093600,
      "componentType": 5126,
      "count": 1201,
      "max": [
        0.39559999108314514,
        0.7506995797157288
      ],
      "min": [
        0.3043999969959259,
        0.6597000360488892
      ],
      "type": "VEC2"
    },
    {
      "bufferView": 1,
      "byteOffset": 3103208,
      "componentType": 5126,
      "count": 1201,
      "max": [
        0.39559999108314514,
        0.7506995797157288
      ],
      "min": [
        0.3043999969959259,
        0.6597000360488892
      ],
      "type": "VEC2"
    },
    {
      "bufferView": 1,
      "byteOffset": 3112816,
      "componentType": 5126,
      "count": 1201,
      "max": [
        0.39559999108314514,
        0.7506995797157288
      ],
      "min": [
        0.3043999969959259,
        0.6597000360488892
      ],
      "type": "VEC2"
    },
    {
      "bufferView": 1,
      "byteOffset": 3122424,
      "componentType": 5126,
      "count": 1201,
      "max": [
        0.39559999108314514,
        0.7506995797157288
      ],
      "min": [
        0.3043999969959259,
        0.6597000360488892
      ],
      "type": "VEC2"
    },
    {
      "bufferView": 1,
      "byteOffset": 3132032,
      "componentType": 5126,
      "count": 1201,
      "max": [
        0.39559999108314514,
        0.7506995797157288
      ],
      "min": [
        0.3043999969959259,
        0.6597000360488892
      ],
      "type": "VEC2"
    },
    {
      "bufferView": 0,
      "byteOffset": 1764552,
      "componentType": 5125,
      "count": 5100,
      "type": "SCALAR"
    }
  ],
  "asset": {
    "extras": {
      "author": "vmmaniac (https://sketchfab.com/vmmaniac)",
      "license": "CC-BY-4.0 (http://creativecommons.org/licenses/by/4.0/)",
      "source": "https://sketchfab.com/3d-models/app-le-watch-tpp-a5d4091fc42247c2bce0e5eb5230851e",
      "title": "App Le Watch TPP"
    },
    "generator": "Sketchfab-16.67.0",
    "version": "2.0"
  },
  "bufferViews": [
    {
      "buffer": 0,
      "byteLength": 1784952,
      "name": "floatBufferViews",
      "target": 34963
    },
    {
      "buffer": 0,
      "byteLength": 3141640,
      "byteOffset": 1784952,
      "byteStride": 8,
      "name": "floatBufferViews",
      "target": 34962
    },
    {
      "buffer": 0,
      "byteLength": 2349024,
      "byteOffset": 4926592,
      "byteStride": 12,
      "name": "floatBufferViews",
      "target": 34962
    }
  ],
  "buffers": [
    {
      "byteLength": 7275616,
      "uri": "scene.bin"
    }
  ],
  "extensionsUsed": [
    "KHR_materials_transmission"
  ],
  "images": [
    {
      "uri": "textures/ASSET_MAT_MR.006_baseColor.jpeg"
    },
    {
      "uri": "textures/ASSET_MAT_MR.006_metallicRoughness.png"
    },
    {
      "uri": "textures/ASSET_MAT_MR.007_baseColor.png"
    },
    {
      "uri": "textures/ASSET_MAT_MR.007_transmission.png"
    }
  ],
  "materials": [
    {
      "doubleSided": true,
      "name": "ASSET_MAT_MR.006",
      "occlusionTexture": {
        "index": 1,
        "texCoord": 2
      },
      "pbrMetallicRoughness": {
        "baseColorTexture": {
          "index": 0
        },
        "metallicRoughnessTexture": {
          "index": 1,
          "texCoord": 1
        }
      }
    },
    {
      "alphaMode": "BLEND",
      "doubleSided": true,
      "extensions": {
        "KHR_materials_transmission": {
          "transmissionFactor": 1.0,
          "transmissionTexture": {
            "index": 3
          }
        }
      },
      "name": "ASSET_MAT_MR.007",
      "occlusionTexture": {
        "index": 1
      },
      "pbrMetallicRoughness": {
        "baseColorTexture": {
          "index": 2
        },
        "metallicRoughnessTexture": {
          "index": 1
        }
      }
    }
  ],
  "meshes": [
    {
      "name": "Object_0",
      "primitives": [
        {
          "attributes": {
            "NORMAL": 1,
            "POSITION": 0,
            "TEXCOORD_0": 2,
            "TEXCOORD_1": 3,
            "TEXCOORD_2": 4,
            "TEXCOORD_3": 5
          },
          "indices": 6,
          "material": 0,
          "mode": 4
        }
      ]
    },
    {
      "name": "Object_1",
      "primitives": [
        {
          "attributes": {
            "NORMAL": 8,
            "POSITION": 7,
            "TEXCOORD_0": 9,
            "TEXCOORD_1": 10,
            "TEXCOORD_2": 11,
            "TEXCOORD_3": 12
          },
          "indices": 13,
          "material": 0,
          "mode": 4
        }
      ]
    },
    {
      "name": "Object_2",
      "primitives": [
        {
          "attributes": {
            "NORMAL": 15,
            "POSITION": 14,
            "TEXCOORD_0": 16,
            "TEXCOORD_1": 17,
            "TEXCOORD_2": 18,
            "TEXCOORD_3": 19,
            "TEXCOORD_4": 20
          },
          "indices": 21,
          "material": 1,
          "mode": 4
        }
      ]
    }
  ],
  "nodes": [
    {
      "children": [
        1
      ],
      "matrix": [
        1.0,
        0.0,
        0.0,
        0.0,
        0.0,
        2.220446049250313e-16,
        -1.0,
        0.0,
        0.0,
        1.0,
        2.220446049250313e-16,
        0.0,
        0.0,
        0.0,
        0.0,
        1.0
      ],
      "name": "Sketchfab_model"
    },
    {
      "children": [
        2
      ],
      "name": "root"
    },
    {
      "children": [
        3
      ],
      "matrix": [
        1.0,
        0.0,
        0.0,
        0.0,
        0.0,
        2.220446049250313e-16,
        1.0,
        0.0,
        0.0,
        -1.0,
        2.220446049250313e-16,
        0.0,
        0.0,
        0.0,
        0.0,
        1.0
      ],
      "name": "GLTF_SceneRootNode"
    },
    {
      "children": [
        4
      ],
      "matrix": [
        0.8746209144592285,
        0.0,
        0.0,
        0.0,
        0.0,
        0.8746209144592285,
        0.0,
        0.0,
        0.0,
        0.0,
        0.8746209144592285,
        0.0,
        -0.061881497502326965,
        0.0,
        0.0,
        1.0
      ],
      "name": "ScaleFactorRootNode.003_2"
    },
    {
      "children": [
        5,
        6,
        7
      ],
      "name": "ASSET.003_1"
    },
    {
      "mesh": 0,
      "name": "Object_5"
    },
    {
      "mesh": 1,
      "name": "Object_6"
    },
    {
      "mesh": 2,
      "name": "Object_7"
    }
  ],
  "samplers": [
    {
      "magFilter": 9729,
      "minFilter": 9987,
      "wrapS": 10497,
      "wrapT": 10497
    }
  ],
  "scene": 0,
  "scenes": [
    {
      "name": "Sketchfab_Scene",
      "nodes": [
        0
      ]
    }
  ],
  "textures": [
    {
      "sampler": 0,
      "source": 0
    },
    {
      "sampler": 0,
      "source": 1
    },
    {
      "sampler": 0,
      "source": 2
    },
    {
      "sampler": 0,
      "source": 3
    }
  ]
}
