<svg width="160" height="160" viewBox="0 0 160 160" fill="none" xmlns="http://www.w3.org/2000/svg">
<circle cx="80" cy="80" r="80" fill="#FFDF8A"/>
<circle cx="80" cy="80" r="61" fill="#FFD156"/>
<rect x="44" y="44" width="72" height="72" rx="36" fill="#FFC016"/>
<path d="M77.915 98.2266C66.7067 98.2266 57.6025 89.1224 57.6025 77.9141C57.6025 66.7057 66.7067 57.6016 77.915 57.6016C89.1234 57.6016 98.2275 66.7057 98.2275 77.9141C98.2275 89.1224 89.1234 98.2266 77.915 98.2266ZM77.915 60.7266C68.4359 60.7266 60.7275 68.4349 60.7275 77.9141C60.7275 87.3932 68.4359 95.1016 77.915 95.1016C87.3942 95.1016 95.1025 87.3932 95.1025 77.9141C95.1025 68.4349 87.3942 60.7266 77.915 60.7266Z" fill="white"/>
<path d="M97.0048 102.475C96.8382 102.475 96.6715 102.454 96.5257 102.434C95.5465 102.309 93.7757 101.642 92.7757 98.6628C92.2548 97.1003 92.4423 95.5378 93.2965 94.3503C94.1507 93.1628 95.5882 92.4961 97.234 92.4961C99.359 92.4961 101.026 93.3086 101.776 94.7461C102.526 96.1836 102.317 98.0169 101.13 99.7878C99.6507 102.017 98.0465 102.475 97.0048 102.475ZM95.7548 97.6836C96.109 98.7669 96.609 99.3086 96.9423 99.3503C97.2757 99.3919 97.9007 98.9961 98.5465 98.0586C99.1507 97.1628 99.1923 96.5169 99.0465 96.2253C98.9007 95.9336 98.3173 95.6211 97.234 95.6211C96.5882 95.6211 96.109 95.8294 95.8382 96.1836C95.5882 96.5378 95.5465 97.0794 95.7548 97.6836Z" fill="white"/>
</svg>
