<svg width="160" height="160" viewBox="0 0 160 160" fill="none" xmlns="http://www.w3.org/2000/svg">
<circle cx="80" cy="80" r="80" fill="#FFDF8A"/>
<circle cx="80" cy="80" r="61" fill="#FFD156"/>
<rect x="44" y="44" width="72" height="72" rx="36" fill="#FFC016"/>
<path d="M93.3333 85.2721C90.42 85.2721 88.0625 82.9146 88.0625 80.0013C88.0625 77.088 90.42 74.7305 93.3333 74.7305C96.2467 74.7305 98.6042 77.088 98.6042 80.0013C98.6042 82.9146 96.2467 85.2721 93.3333 85.2721ZM93.3333 77.6055C92.0108 77.6055 90.9375 78.6788 90.9375 80.0013C90.9375 81.3238 92.0108 82.3971 93.3333 82.3971C94.6558 82.3971 95.7292 81.3238 95.7292 80.0013C95.7292 78.6788 94.6558 77.6055 93.3333 77.6055Z" fill="white"/>
<path d="M93.3333 69.9362C90.42 69.9362 88.0625 67.5787 88.0625 64.6654C88.0625 61.752 90.42 59.3945 93.3333 59.3945C96.2467 59.3945 98.6042 61.752 98.6042 64.6654C98.6042 67.5787 96.2467 69.9362 93.3333 69.9362ZM93.3333 62.2695C92.0108 62.2695 90.9375 63.3429 90.9375 64.6654C90.9375 65.9879 92.0108 67.0612 93.3333 67.0612C94.6558 67.0612 95.7292 65.9879 95.7292 64.6654C95.7292 63.3429 94.6558 62.2695 93.3333 62.2695Z" fill="white"/>
<path d="M93.3333 100.604C90.42 100.604 88.0625 98.2467 88.0625 95.3333C88.0625 92.42 90.42 90.0625 93.3333 90.0625C96.2467 90.0625 98.6042 92.42 98.6042 95.3333C98.6042 98.2467 96.2467 100.604 93.3333 100.604ZM93.3333 92.9375C92.0108 92.9375 90.9375 94.0108 90.9375 95.3333C90.9375 96.6558 92.0108 97.7292 93.3333 97.7292C94.6558 97.7292 95.7292 96.6558 95.7292 95.3333C95.7292 94.0108 94.6558 92.9375 93.3333 92.9375Z" fill="white"/>
<path d="M62.6644 85.2721C59.7511 85.2721 57.3936 82.9146 57.3936 80.0013C57.3936 77.088 59.7511 74.7305 62.6644 74.7305C65.5777 74.7305 67.9352 77.088 67.9352 80.0013C67.9352 82.9146 65.5777 85.2721 62.6644 85.2721ZM62.6644 77.6055C61.3419 77.6055 60.2686 78.6788 60.2686 80.0013C60.2686 81.3238 61.3419 82.3971 62.6644 82.3971C63.9869 82.3971 65.0602 81.3238 65.0602 80.0013C65.0602 78.6788 63.9869 77.6055 62.6644 77.6055Z" fill="white"/>
<path d="M89.5 81.4375H66.5C65.7142 81.4375 65.0625 80.7858 65.0625 80C65.0625 79.2142 65.7142 78.5625 66.5 78.5625H89.5C90.2858 78.5625 90.9375 79.2142 90.9375 80C90.9375 80.7858 90.2858 81.4375 89.5 81.4375Z" fill="white"/>
<path d="M89.4977 96.7721H81.8311C77.1927 96.7721 74.6436 94.223 74.6436 89.5846V70.418C74.6436 65.7796 77.1927 63.2305 81.8311 63.2305H89.4977C90.2836 63.2305 90.9352 63.8821 90.9352 64.668C90.9352 65.4538 90.2836 66.1055 89.4977 66.1055H81.8311C78.8027 66.1055 77.5186 67.3896 77.5186 70.418V89.5846C77.5186 92.613 78.8027 93.8971 81.8311 93.8971H89.4977C90.2836 93.8971 90.9352 94.5488 90.9352 95.3346C90.9352 96.1205 90.2836 96.7721 89.4977 96.7721Z" fill="white"/>
</svg>
