<svg width="160" height="160" viewBox="0 0 160 160" fill="none" xmlns="http://www.w3.org/2000/svg">
<circle cx="80" cy="80" r="80" fill="#FFDF8A"/>
<circle cx="80" cy="80" r="61" fill="#FFD156"/>
<rect x="44" y="44" width="72" height="72" rx="36" fill="#FFC016"/>
<path d="M67.5003 67.5013L76.8753 76.8763M67.5003 67.5013H61.2503L59.167 61.2513L61.2503 59.168L67.5003 61.2513V67.5013ZM95.1232 60.7117L89.649 66.1859C88.824 67.011 88.4115 67.4235 88.2569 67.8992C88.121 68.3176 88.121 68.7683 88.2569 69.1868C88.4115 69.6624 88.824 70.075 89.649 70.9L90.1433 71.3943C90.9683 72.2193 91.3809 72.6318 91.8565 72.7864C92.275 72.9223 92.7257 72.9223 93.1441 72.7864C93.6198 72.6318 94.0323 72.2193 94.8574 71.3943L99.978 66.2736C100.53 67.6156 100.834 69.0855 100.834 70.6263C100.834 76.9546 95.7036 82.0846 89.3753 82.0846C88.6124 82.0846 87.8669 82.0101 87.1457 81.8678C86.1329 81.6681 85.6265 81.5682 85.3195 81.5988C84.9931 81.6313 84.8322 81.6803 84.5431 81.835C84.271 81.9806 83.9982 82.2534 83.4525 82.7992L68.542 97.7096C66.8161 99.4355 64.0179 99.4355 62.292 97.7096C60.5661 95.9837 60.5661 93.1855 62.292 91.4596L77.2025 76.5492C77.7482 76.0034 78.021 75.7306 78.1666 75.4586C78.3214 75.1694 78.3703 75.0085 78.4028 74.6822C78.4334 74.3752 78.3335 73.8688 78.1338 72.856C77.9916 72.1348 77.917 71.3892 77.917 70.6263C77.917 64.298 83.0471 59.168 89.3753 59.168C91.4701 59.168 93.4336 59.7301 95.1232 60.7117ZM80.0004 86.2512L91.4587 97.7094C93.1845 99.4353 95.9828 99.4353 97.7086 97.7094C99.4345 95.9835 99.4345 93.1853 97.7086 91.4594L88.2822 82.0332C87.6149 81.97 86.9643 81.8496 86.3353 81.677C85.5247 81.4545 84.6356 81.616 84.0413 82.2103L80.0004 86.2512Z" stroke="white" stroke-width="2.6" stroke-linecap="round" stroke-linejoin="round"/>
</svg>
