<svg width="160" height="160" viewBox="0 0 160 160" fill="none" xmlns="http://www.w3.org/2000/svg">
<circle cx="80" cy="80" r="80" fill="#FFDF8A"/>
<circle cx="80" cy="80" r="61" fill="#FFD156"/>
<rect x="44" y="44" width="72" height="72" rx="36" fill="#FFC016"/>
<path d="M74.0804 79.2096C74.0179 79.2096 73.9762 79.2096 73.9137 79.2096C73.8096 79.1888 73.6637 79.1888 73.5387 79.2096C67.4971 79.0221 62.9346 74.2721 62.9346 68.418C62.9346 62.4596 67.7887 57.6055 73.7471 57.6055C79.7054 57.6055 84.5596 62.4596 84.5596 68.418C84.5387 74.2721 79.9554 79.0221 74.1429 79.2096C74.1221 79.2096 74.1012 79.2096 74.0804 79.2096ZM73.7471 60.7305C69.5179 60.7305 66.0596 64.1888 66.0596 68.418C66.0596 72.5846 69.3096 75.9388 73.4554 76.0846C73.5804 76.0638 73.8512 76.0638 74.1221 76.0846C78.2054 75.8971 81.4137 72.543 81.4346 68.418C81.4346 64.1888 77.9762 60.7305 73.7471 60.7305Z" fill="white"/>
<path d="M89.455 79.4779C89.3925 79.4779 89.33 79.4779 89.2675 79.457C88.4133 79.5404 87.5383 78.9362 87.455 78.082C87.3717 77.2279 87.8925 76.457 88.7467 76.3529C88.9967 76.332 89.2675 76.332 89.4967 76.332C92.5383 76.1654 94.9133 73.6654 94.9133 70.6029C94.9133 67.4362 92.3508 64.8737 89.1842 64.8737C88.33 64.8945 87.6217 64.1862 87.6217 63.332C87.6217 62.4779 88.33 61.7695 89.1842 61.7695C94.0592 61.7695 98.0383 65.7487 98.0383 70.6237C98.0383 75.4154 94.2883 79.2904 89.5175 79.4779C89.4967 79.4779 89.4758 79.4779 89.455 79.4779Z" fill="white"/>
<path d="M74.1087 101.978C70.0254 101.978 65.9212 100.936 62.8171 98.8529C59.9212 96.9362 58.3379 94.3112 58.3379 91.457C58.3379 88.6029 59.9212 85.957 62.8171 84.0195C69.0671 79.8737 79.1921 79.8737 85.4004 84.0195C88.2754 85.9362 89.8796 88.5612 89.8796 91.4154C89.8796 94.2695 88.2962 96.9154 85.4004 98.8529C82.2754 100.936 78.1921 101.978 74.1087 101.978ZM64.5462 86.6445C62.5462 87.9779 61.4629 89.6862 61.4629 91.4779C61.4629 93.2487 62.5671 94.957 64.5462 96.2695C69.7337 99.7487 78.4837 99.7487 83.6712 96.2695C85.6712 94.9362 86.7546 93.2279 86.7546 91.4362C86.7546 89.6654 85.6504 87.957 83.6712 86.6445C78.4837 83.1862 69.7337 83.1862 64.5462 86.6445Z" fill="white"/>
<path d="M93.2033 98.2273C92.4741 98.2273 91.8283 97.7273 91.6825 96.9773C91.5158 96.1231 92.0575 95.3106 92.8908 95.1231C94.2033 94.8523 95.4116 94.3314 96.3491 93.6023C97.5366 92.7064 98.1825 91.5814 98.1825 90.3939C98.1825 89.2064 97.5366 88.0814 96.37 87.2064C95.4533 86.4981 94.3075 85.9981 92.9533 85.6856C92.12 85.4981 91.5783 84.6648 91.7658 83.8106C91.9533 82.9773 92.7866 82.4356 93.6408 82.6231C95.4325 83.0189 96.995 83.7273 98.2658 84.7064C100.203 86.1648 101.307 88.2273 101.307 90.3939C101.307 92.5606 100.182 94.6231 98.245 96.1023C96.9533 97.1023 95.3283 97.8314 93.5366 98.1856C93.4116 98.2273 93.3075 98.2273 93.2033 98.2273Z" fill="white"/>
</svg>
